<mxfile host="Electron" agent="Mozilla/5.0 (Macintosh; Intel Mac OS X 10_15_7) AppleWebKit/537.36 (KHTML, like Gecko) draw.io/26.0.4 Chrome/128.0.6613.186 Electron/32.2.5 Safari/537.36" version="26.0.4">
  <diagram name="2.1-1" id="re-biGfrl1yITF8QGUFn">
    <mxGraphModel dx="2954" dy="1267" grid="1" gridSize="10" guides="1" tooltips="1" connect="1" arrows="1" fold="1" page="1" pageScale="1" pageWidth="850" pageHeight="1100" math="0" shadow="0">
      <root>
        <mxCell id="0" />
        <mxCell id="1" parent="0" />
        <mxCell id="6sci42aBnczz2mP2SfP5-24" value="" style="group;fillColor=#dae8fc;strokeColor=#6c8ebf;" parent="1" vertex="1" connectable="0">
          <mxGeometry x="200" y="160" width="360" height="60" as="geometry" />
        </mxCell>
        <mxCell id="6sci42aBnczz2mP2SfP5-17" value="31" style="rounded=0;whiteSpace=wrap;html=1;fillColor=#ffe6cc;strokeColor=#d79b00;" parent="6sci42aBnczz2mP2SfP5-24" vertex="1">
          <mxGeometry width="60" height="60" as="geometry" />
        </mxCell>
        <mxCell id="6sci42aBnczz2mP2SfP5-19" value="41" style="rounded=0;whiteSpace=wrap;html=1;fillColor=#dae8fc;strokeColor=#6c8ebf;" parent="6sci42aBnczz2mP2SfP5-24" vertex="1">
          <mxGeometry x="60" width="60" height="60" as="geometry" />
        </mxCell>
        <mxCell id="6sci42aBnczz2mP2SfP5-20" value="59" style="rounded=0;whiteSpace=wrap;html=1;" parent="6sci42aBnczz2mP2SfP5-24" vertex="1">
          <mxGeometry x="120" width="60" height="60" as="geometry" />
        </mxCell>
        <mxCell id="6sci42aBnczz2mP2SfP5-21" value="26" style="rounded=0;whiteSpace=wrap;html=1;" parent="6sci42aBnczz2mP2SfP5-24" vertex="1">
          <mxGeometry x="180" width="60" height="60" as="geometry" />
        </mxCell>
        <mxCell id="6sci42aBnczz2mP2SfP5-22" value="41" style="rounded=0;whiteSpace=wrap;html=1;" parent="6sci42aBnczz2mP2SfP5-24" vertex="1">
          <mxGeometry x="240" width="60" height="60" as="geometry" />
        </mxCell>
        <mxCell id="6sci42aBnczz2mP2SfP5-23" value="58" style="rounded=0;whiteSpace=wrap;html=1;" parent="6sci42aBnczz2mP2SfP5-24" vertex="1">
          <mxGeometry x="300" width="60" height="60" as="geometry" />
        </mxCell>
        <mxCell id="6sci42aBnczz2mP2SfP5-25" value="" style="endArrow=classic;html=1;rounded=0;exitX=0.75;exitY=1;exitDx=0;exitDy=0;entryX=0.25;entryY=1;entryDx=0;entryDy=0;edgeStyle=orthogonalEdgeStyle;curved=1;fillColor=#dae8fc;strokeColor=#6c8ebf;" parent="6sci42aBnczz2mP2SfP5-24" source="6sci42aBnczz2mP2SfP5-19" target="6sci42aBnczz2mP2SfP5-19" edge="1">
          <mxGeometry width="50" height="50" relative="1" as="geometry">
            <mxPoint x="120" y="120" as="sourcePoint" />
            <mxPoint x="170" y="70" as="targetPoint" />
            <Array as="points">
              <mxPoint x="90" y="100" />
            </Array>
          </mxGeometry>
        </mxCell>
        <mxCell id="6sci42aBnczz2mP2SfP5-26" value="" style="group;fillColor=#fff2cc;strokeColor=#d6b656;" parent="1" vertex="1" connectable="0">
          <mxGeometry x="200" y="280" width="360" height="60" as="geometry" />
        </mxCell>
        <mxCell id="6sci42aBnczz2mP2SfP5-27" value="31" style="rounded=0;whiteSpace=wrap;html=1;fillColor=#ffe6cc;strokeColor=#d79b00;" parent="6sci42aBnczz2mP2SfP5-26" vertex="1">
          <mxGeometry width="60" height="60" as="geometry" />
        </mxCell>
        <mxCell id="6sci42aBnczz2mP2SfP5-28" value="41" style="rounded=0;whiteSpace=wrap;html=1;fillColor=#ffe6cc;strokeColor=#d79b00;" parent="6sci42aBnczz2mP2SfP5-26" vertex="1">
          <mxGeometry x="60" width="60" height="60" as="geometry" />
        </mxCell>
        <mxCell id="6sci42aBnczz2mP2SfP5-29" value="59" style="rounded=0;whiteSpace=wrap;html=1;fillColor=#dae8fc;strokeColor=#6c8ebf;" parent="6sci42aBnczz2mP2SfP5-26" vertex="1">
          <mxGeometry x="120" width="60" height="60" as="geometry" />
        </mxCell>
        <mxCell id="6sci42aBnczz2mP2SfP5-30" value="26" style="rounded=0;whiteSpace=wrap;html=1;" parent="6sci42aBnczz2mP2SfP5-26" vertex="1">
          <mxGeometry x="180" width="60" height="60" as="geometry" />
        </mxCell>
        <mxCell id="6sci42aBnczz2mP2SfP5-31" value="41" style="rounded=0;whiteSpace=wrap;html=1;" parent="6sci42aBnczz2mP2SfP5-26" vertex="1">
          <mxGeometry x="240" width="60" height="60" as="geometry" />
        </mxCell>
        <mxCell id="6sci42aBnczz2mP2SfP5-32" value="58" style="rounded=0;whiteSpace=wrap;html=1;" parent="6sci42aBnczz2mP2SfP5-26" vertex="1">
          <mxGeometry x="300" width="60" height="60" as="geometry" />
        </mxCell>
        <mxCell id="6sci42aBnczz2mP2SfP5-36" value="" style="endArrow=classic;html=1;rounded=0;exitX=0.75;exitY=1;exitDx=0;exitDy=0;entryX=0.25;entryY=1;entryDx=0;entryDy=0;edgeStyle=orthogonalEdgeStyle;curved=1;fillColor=#dae8fc;strokeColor=#6c8ebf;" parent="6sci42aBnczz2mP2SfP5-26" source="6sci42aBnczz2mP2SfP5-29" target="6sci42aBnczz2mP2SfP5-29" edge="1">
          <mxGeometry width="50" height="50" relative="1" as="geometry">
            <mxPoint x="115" y="-50" as="sourcePoint" />
            <mxPoint x="85" y="-50" as="targetPoint" />
            <Array as="points">
              <mxPoint x="150" y="100" />
            </Array>
          </mxGeometry>
        </mxCell>
        <mxCell id="6sci42aBnczz2mP2SfP5-37" value="" style="group;fillColor=#ffe6cc;strokeColor=#d79b00;" parent="1" vertex="1" connectable="0">
          <mxGeometry x="200" y="400" width="360" height="60" as="geometry" />
        </mxCell>
        <mxCell id="6sci42aBnczz2mP2SfP5-38" value="31" style="rounded=0;whiteSpace=wrap;html=1;fillColor=#ffe6cc;strokeColor=#d79b00;" parent="6sci42aBnczz2mP2SfP5-37" vertex="1">
          <mxGeometry width="60" height="60" as="geometry" />
        </mxCell>
        <mxCell id="6sci42aBnczz2mP2SfP5-39" value="41" style="rounded=0;whiteSpace=wrap;html=1;fillColor=#ffe6cc;strokeColor=#d79b00;" parent="6sci42aBnczz2mP2SfP5-37" vertex="1">
          <mxGeometry x="60" width="60" height="60" as="geometry" />
        </mxCell>
        <mxCell id="6sci42aBnczz2mP2SfP5-40" value="59" style="rounded=0;whiteSpace=wrap;html=1;fillColor=#ffe6cc;strokeColor=#d79b00;" parent="6sci42aBnczz2mP2SfP5-37" vertex="1">
          <mxGeometry x="120" width="60" height="60" as="geometry" />
        </mxCell>
        <mxCell id="6sci42aBnczz2mP2SfP5-41" value="26" style="rounded=0;whiteSpace=wrap;html=1;fillColor=#dae8fc;strokeColor=#6c8ebf;" parent="6sci42aBnczz2mP2SfP5-37" vertex="1">
          <mxGeometry x="180" width="60" height="60" as="geometry" />
        </mxCell>
        <mxCell id="6sci42aBnczz2mP2SfP5-42" value="41" style="rounded=0;whiteSpace=wrap;html=1;" parent="6sci42aBnczz2mP2SfP5-37" vertex="1">
          <mxGeometry x="240" width="60" height="60" as="geometry" />
        </mxCell>
        <mxCell id="6sci42aBnczz2mP2SfP5-43" value="58" style="rounded=0;whiteSpace=wrap;html=1;" parent="6sci42aBnczz2mP2SfP5-37" vertex="1">
          <mxGeometry x="300" width="60" height="60" as="geometry" />
        </mxCell>
        <mxCell id="6sci42aBnczz2mP2SfP5-45" value="" style="endArrow=classic;html=1;rounded=0;exitX=0.75;exitY=1;exitDx=0;exitDy=0;entryX=0.25;entryY=1;entryDx=0;entryDy=0;edgeStyle=orthogonalEdgeStyle;curved=1;fillColor=#ffe6cc;strokeColor=#d79b00;" parent="6sci42aBnczz2mP2SfP5-37" source="6sci42aBnczz2mP2SfP5-40" target="6sci42aBnczz2mP2SfP5-41" edge="1">
          <mxGeometry width="50" height="50" relative="1" as="geometry">
            <mxPoint x="175" y="-50" as="sourcePoint" />
            <mxPoint x="145" y="-50" as="targetPoint" />
            <Array as="points">
              <mxPoint x="165" y="90" />
              <mxPoint x="195" y="90" />
            </Array>
          </mxGeometry>
        </mxCell>
        <mxCell id="6sci42aBnczz2mP2SfP5-48" value="" style="endArrow=classic;html=1;rounded=0;exitX=0.75;exitY=1;exitDx=0;exitDy=0;entryX=0.25;entryY=1;entryDx=0;entryDy=0;edgeStyle=orthogonalEdgeStyle;curved=1;fillColor=#dae8fc;strokeColor=#6c8ebf;" parent="6sci42aBnczz2mP2SfP5-37" source="6sci42aBnczz2mP2SfP5-41" target="6sci42aBnczz2mP2SfP5-38" edge="1">
          <mxGeometry width="50" height="50" relative="1" as="geometry">
            <mxPoint x="195" y="90" as="sourcePoint" />
            <mxPoint x="225" y="90" as="targetPoint" />
            <Array as="points">
              <mxPoint x="225" y="110" />
              <mxPoint x="15" y="110" />
            </Array>
          </mxGeometry>
        </mxCell>
        <mxCell id="6sci42aBnczz2mP2SfP5-46" value="" style="endArrow=classic;html=1;rounded=0;exitX=0.75;exitY=1;exitDx=0;exitDy=0;entryX=0.25;entryY=1;entryDx=0;entryDy=0;edgeStyle=orthogonalEdgeStyle;curved=1;fillColor=#ffe6cc;strokeColor=#d79b00;" parent="1" edge="1">
          <mxGeometry width="50" height="50" relative="1" as="geometry">
            <mxPoint x="300" y="460" as="sourcePoint" />
            <mxPoint x="330" y="460" as="targetPoint" />
            <Array as="points">
              <mxPoint x="300" y="490" />
              <mxPoint x="330" y="490" />
            </Array>
          </mxGeometry>
        </mxCell>
        <mxCell id="6sci42aBnczz2mP2SfP5-47" value="" style="endArrow=classic;html=1;rounded=0;exitX=0.75;exitY=1;exitDx=0;exitDy=0;entryX=0.25;entryY=1;entryDx=0;entryDy=0;edgeStyle=orthogonalEdgeStyle;curved=1;fillColor=#ffe6cc;strokeColor=#d79b00;" parent="1" edge="1">
          <mxGeometry width="50" height="50" relative="1" as="geometry">
            <mxPoint x="240" y="460" as="sourcePoint" />
            <mxPoint x="270" y="460" as="targetPoint" />
            <Array as="points">
              <mxPoint x="240" y="490" />
              <mxPoint x="270" y="490" />
            </Array>
          </mxGeometry>
        </mxCell>
        <mxCell id="6sci42aBnczz2mP2SfP5-49" value="" style="group;fillColor=#ffe6cc;strokeColor=#d79b00;" parent="1" vertex="1" connectable="0">
          <mxGeometry x="200" y="540" width="360" height="60" as="geometry" />
        </mxCell>
        <mxCell id="6sci42aBnczz2mP2SfP5-50" value="26" style="rounded=0;whiteSpace=wrap;html=1;fillColor=#ffe6cc;strokeColor=#d79b00;" parent="6sci42aBnczz2mP2SfP5-49" vertex="1">
          <mxGeometry width="60" height="60" as="geometry" />
        </mxCell>
        <mxCell id="6sci42aBnczz2mP2SfP5-51" value="31" style="rounded=0;whiteSpace=wrap;html=1;fillColor=#ffe6cc;strokeColor=#d79b00;" parent="6sci42aBnczz2mP2SfP5-49" vertex="1">
          <mxGeometry x="60" width="60" height="60" as="geometry" />
        </mxCell>
        <mxCell id="6sci42aBnczz2mP2SfP5-52" value="41" style="rounded=0;whiteSpace=wrap;html=1;fillColor=#ffe6cc;strokeColor=#d79b00;" parent="6sci42aBnczz2mP2SfP5-49" vertex="1">
          <mxGeometry x="120" width="60" height="60" as="geometry" />
        </mxCell>
        <mxCell id="6sci42aBnczz2mP2SfP5-53" value="59" style="rounded=0;whiteSpace=wrap;html=1;fillColor=#ffe6cc;strokeColor=#d79b00;" parent="6sci42aBnczz2mP2SfP5-49" vertex="1">
          <mxGeometry x="180" width="60" height="60" as="geometry" />
        </mxCell>
        <mxCell id="6sci42aBnczz2mP2SfP5-54" value="41" style="rounded=0;whiteSpace=wrap;html=1;fillColor=#dae8fc;strokeColor=#6c8ebf;" parent="6sci42aBnczz2mP2SfP5-49" vertex="1">
          <mxGeometry x="240" width="60" height="60" as="geometry" />
        </mxCell>
        <mxCell id="6sci42aBnczz2mP2SfP5-55" value="58" style="rounded=0;whiteSpace=wrap;html=1;" parent="6sci42aBnczz2mP2SfP5-49" vertex="1">
          <mxGeometry x="300" width="60" height="60" as="geometry" />
        </mxCell>
        <mxCell id="6sci42aBnczz2mP2SfP5-58" value="" style="endArrow=classic;html=1;rounded=0;exitX=0.75;exitY=1;exitDx=0;exitDy=0;entryX=0.25;entryY=1;entryDx=0;entryDy=0;edgeStyle=orthogonalEdgeStyle;curved=1;fillColor=#ffe6cc;strokeColor=#d79b00;" parent="1" edge="1">
          <mxGeometry width="50" height="50" relative="1" as="geometry">
            <mxPoint x="425" y="600" as="sourcePoint" />
            <mxPoint x="455" y="600" as="targetPoint" />
            <Array as="points">
              <mxPoint x="425" y="630" />
              <mxPoint x="455" y="630" />
            </Array>
          </mxGeometry>
        </mxCell>
        <mxCell id="6sci42aBnczz2mP2SfP5-59" value="" style="endArrow=classic;html=1;rounded=0;exitX=0.75;exitY=1;exitDx=0;exitDy=0;entryX=0.25;entryY=1;entryDx=0;entryDy=0;fillColor=#dae8fc;strokeColor=#6c8ebf;edgeStyle=orthogonalEdgeStyle;curved=1;" parent="1" target="6sci42aBnczz2mP2SfP5-53" edge="1">
          <mxGeometry width="50" height="50" relative="1" as="geometry">
            <mxPoint x="470" y="600" as="sourcePoint" />
            <mxPoint x="260" y="600" as="targetPoint" />
            <Array as="points">
              <mxPoint x="470" y="650" />
              <mxPoint x="395" y="650" />
            </Array>
          </mxGeometry>
        </mxCell>
        <mxCell id="6sci42aBnczz2mP2SfP5-60" value="" style="group;fillColor=#ffe6cc;strokeColor=#d79b00;" parent="1" vertex="1" connectable="0">
          <mxGeometry x="200" y="680" width="360" height="60" as="geometry" />
        </mxCell>
        <mxCell id="6sci42aBnczz2mP2SfP5-61" value="26" style="rounded=0;whiteSpace=wrap;html=1;fillColor=#ffe6cc;strokeColor=#d79b00;" parent="6sci42aBnczz2mP2SfP5-60" vertex="1">
          <mxGeometry width="60" height="60" as="geometry" />
        </mxCell>
        <mxCell id="6sci42aBnczz2mP2SfP5-62" value="31" style="rounded=0;whiteSpace=wrap;html=1;fillColor=#ffe6cc;strokeColor=#d79b00;" parent="6sci42aBnczz2mP2SfP5-60" vertex="1">
          <mxGeometry x="60" width="60" height="60" as="geometry" />
        </mxCell>
        <mxCell id="6sci42aBnczz2mP2SfP5-63" value="41" style="rounded=0;whiteSpace=wrap;html=1;fillColor=#ffe6cc;strokeColor=#d79b00;" parent="6sci42aBnczz2mP2SfP5-60" vertex="1">
          <mxGeometry x="120" width="60" height="60" as="geometry" />
        </mxCell>
        <mxCell id="6sci42aBnczz2mP2SfP5-64" value="41" style="rounded=0;whiteSpace=wrap;html=1;fillColor=#ffe6cc;strokeColor=#d79b00;" parent="6sci42aBnczz2mP2SfP5-60" vertex="1">
          <mxGeometry x="180" width="60" height="60" as="geometry" />
        </mxCell>
        <mxCell id="6sci42aBnczz2mP2SfP5-65" value="59" style="rounded=0;whiteSpace=wrap;html=1;fillColor=#ffe6cc;strokeColor=#d79b00;" parent="6sci42aBnczz2mP2SfP5-60" vertex="1">
          <mxGeometry x="240" width="60" height="60" as="geometry" />
        </mxCell>
        <mxCell id="6sci42aBnczz2mP2SfP5-66" value="58" style="rounded=0;whiteSpace=wrap;html=1;fillColor=#dae8fc;strokeColor=#6c8ebf;" parent="6sci42aBnczz2mP2SfP5-60" vertex="1">
          <mxGeometry x="300" width="60" height="60" as="geometry" />
        </mxCell>
        <mxCell id="6sci42aBnczz2mP2SfP5-67" value="" style="endArrow=classic;html=1;rounded=0;exitX=0.75;exitY=1;exitDx=0;exitDy=0;entryX=0.25;entryY=1;entryDx=0;entryDy=0;edgeStyle=orthogonalEdgeStyle;curved=1;fillColor=#ffe6cc;strokeColor=#d79b00;" parent="1" edge="1">
          <mxGeometry width="50" height="50" relative="1" as="geometry">
            <mxPoint x="490" y="740" as="sourcePoint" />
            <mxPoint x="520" y="740" as="targetPoint" />
            <Array as="points">
              <mxPoint x="490" y="770" />
              <mxPoint x="520" y="770" />
            </Array>
          </mxGeometry>
        </mxCell>
        <mxCell id="6sci42aBnczz2mP2SfP5-68" value="" style="endArrow=classic;html=1;rounded=0;exitX=0.75;exitY=1;exitDx=0;exitDy=0;entryX=0.25;entryY=1;entryDx=0;entryDy=0;fillColor=#dae8fc;strokeColor=#6c8ebf;edgeStyle=orthogonalEdgeStyle;curved=1;" parent="1" edge="1">
          <mxGeometry width="50" height="50" relative="1" as="geometry">
            <mxPoint x="545" y="740" as="sourcePoint" />
            <mxPoint x="470" y="740" as="targetPoint" />
            <Array as="points">
              <mxPoint x="545" y="790" />
              <mxPoint x="470" y="790" />
            </Array>
          </mxGeometry>
        </mxCell>
        <mxCell id="6sci42aBnczz2mP2SfP5-69" value="" style="group;fillColor=#ffe6cc;strokeColor=#d79b00;" parent="1" vertex="1" connectable="0">
          <mxGeometry x="200" y="840" width="360" height="60" as="geometry" />
        </mxCell>
        <mxCell id="6sci42aBnczz2mP2SfP5-70" value="26" style="rounded=0;whiteSpace=wrap;html=1;fillColor=#ffe6cc;strokeColor=#d79b00;" parent="6sci42aBnczz2mP2SfP5-69" vertex="1">
          <mxGeometry width="60" height="60" as="geometry" />
        </mxCell>
        <mxCell id="6sci42aBnczz2mP2SfP5-71" value="31" style="rounded=0;whiteSpace=wrap;html=1;fillColor=#ffe6cc;strokeColor=#d79b00;" parent="6sci42aBnczz2mP2SfP5-69" vertex="1">
          <mxGeometry x="60" width="60" height="60" as="geometry" />
        </mxCell>
        <mxCell id="6sci42aBnczz2mP2SfP5-72" value="41" style="rounded=0;whiteSpace=wrap;html=1;fillColor=#ffe6cc;strokeColor=#d79b00;" parent="6sci42aBnczz2mP2SfP5-69" vertex="1">
          <mxGeometry x="120" width="60" height="60" as="geometry" />
        </mxCell>
        <mxCell id="6sci42aBnczz2mP2SfP5-73" value="41" style="rounded=0;whiteSpace=wrap;html=1;fillColor=#ffe6cc;strokeColor=#d79b00;" parent="6sci42aBnczz2mP2SfP5-69" vertex="1">
          <mxGeometry x="180" width="60" height="60" as="geometry" />
        </mxCell>
        <mxCell id="6sci42aBnczz2mP2SfP5-74" value="58" style="rounded=0;whiteSpace=wrap;html=1;fillColor=#ffe6cc;strokeColor=#d79b00;" parent="6sci42aBnczz2mP2SfP5-69" vertex="1">
          <mxGeometry x="240" width="60" height="60" as="geometry" />
        </mxCell>
        <mxCell id="6sci42aBnczz2mP2SfP5-75" value="59" style="rounded=0;whiteSpace=wrap;html=1;fillColor=#ffe6cc;strokeColor=#d79b00;" parent="6sci42aBnczz2mP2SfP5-69" vertex="1">
          <mxGeometry x="300" width="60" height="60" as="geometry" />
        </mxCell>
      </root>
    </mxGraphModel>
  </diagram>
</mxfile>
